# xmcd
#
# Track frame offsets: 
#        150
#        12992
#        33160
#        46590
#        61595
#        77655
#        95632
#        115015
#        134932
#        153407
#        174395
#        191452
#        213770
#        228735
#        252340
#        281739
#
# Disc length: 3855 seconds
#
# Revision: 0
# Processed by: cddbd v1.5.2PL0 Copyright (c) Steve Scherf et al.
# Submitted via: ExactAudioCopy v0.99pb5
#
DISCID=d20f0d10
DTITLE=KRS ONE - RETURN OF THE BOOM BAP
DYEAR=1993
DGENRE=Hip-Hop
TTITLE0=Krs-One Attacks
TTITLE1=Outta Here
TTITLE2=Black Cop
TTITLE3=Mortal Thought
TTITLE4=I Can't Wake Up
TTITLE5=Slap Them Up
TTITLE6=Sound Of Da Police
TTITLE7=Mad Crew
TTITLE8=Uh,Oh
TTITLE9=Brown Skin Woman
TTITLE10=Return Of The Boom Bap
TTITLE11=P Is Still Free
TTITLE12=Stop Frontin'
TTITLE13=Higher Level
TTITLE14=Return Of The Boom Bap-Iron Lion Remix Featuring Mad Lion
TTITLE15=EXTRA VIDEO
EXTD=
EXTT0=
EXTT1=
EXTT2=
EXTT3=
EXTT4=
EXTT5=
EXTT6=
EXTT7=
EXTT8=
EXTT9=
EXTT10=
EXTT11=
EXTT12=
EXTT13=
EXTT14=
EXTT15=
PLAYORDER=
